<svg width="15" height="19" viewBox="0 0 15 19" fill="none" xmlns="http://www.w3.org/2000/svg">
<path d="M7.5 18.1066L2.1967 12.8033C-0.732233 9.87433 -0.732233 5.12563 2.1967 2.1967C5.12563 -0.732233 9.87433 -0.732233 12.8033 2.1967C15.7323 5.12563 15.7323 9.87433 12.8033 12.8033L7.5 18.1066ZM11.6248 11.6248C13.9028 9.34675 13.9028 5.65327 11.6248 3.37521C9.34675 1.09715 5.65327 1.09715 3.37521 3.37521C1.09715 5.65327 1.09715 9.34675 3.37521 11.6248L7.5 15.7496L11.6248 11.6248ZM7.5 9.16667C6.5795 9.16667 5.83333 8.4205 5.83333 7.5C5.83333 6.57952 6.5795 5.83333 7.5 5.83333C8.4205 5.83333 9.16667 6.57952 9.16667 7.5C9.16667 8.4205 8.4205 9.16667 7.5 9.16667Z" fill="#0049DB"/>
</svg>
